<?xml version="1.0" encoding="utf-8"?>
<!-- Generator: Adobe Illustrator 19.1.0, SVG Export Plug-In . SVG Version: 6.00 Build 0)  -->
<svg version="1.1" id="Layer_6" xmlns="http://www.w3.org/2000/svg" xmlns:xlink="http://www.w3.org/1999/xlink" x="0px" y="0px"
	 viewBox="0 0 300 300" style="enable-background:new 0 0 300 300;" xml:space="preserve">
<style type="text/css">
	.st0{fill:#CC6072;}
</style>
<g>
	<g>
		<path class="st0" d="M108.1,121.9v-15.7l-0.3-31.7l15.7,0l0.3,31.4v16c0,8.7-3.1,16.1-9.2,22.2c-6.1,5.9-13.3,9-21.9,9.1h-0.5
			c-6.6-0.1-12.4-1.9-17.5-5.4l7.9-13.7c2.7,2.3,5.6,3.5,9.7,3.5h0.3C101.2,137.6,108.1,130.3,108.1,121.9z"/>
		<path class="st0" d="M144.9,151.2c4.2,0,8.8-3.5,8.8-7.7c0-6.9-9.3-7.9-14.5-9.7c-9.2-3.1-17.3-10.7-17.3-21
			c0-12.7,10.3-23,23.1-23c11.6,0,21.2,8.6,22.8,19.8l-15.1,3.2c0-4.1-3.5-7.6-7.6-7.6c-4.2,0-7.7,3.5-7.7,7.7
			c0,6.8,8.6,8.6,13.9,10.2c9.5,2.8,17.9,10,17.9,20.5c0,12.7-11.4,23-24.2,23c-11.7,0-22.3-8.6-24-19.8l15.1-3.2
			C136.1,147.8,140.7,151.2,144.9,151.2L144.9,151.2z"/>
		<path class="st0" d="M199.9,155.5c-10.6,0-19.6-3.8-27-11.2c-7.5-7.5-11.3-16.5-11.3-27.1c0-10.5,3.8-19.6,11.3-27.1
			c7.5-7.5,16.5-11.3,27-11.3l0,0.2c11.7,0,20.9,5.2,27.2,11.2l-10.8,10.8c-4.6-4.5-10-6.8-16.3-6.8c-6.4,0-11.8,2.3-16.2,6.8
			c-4.5,4.6-6.8,10-6.8,16.3c0,6.3,2.3,11.8,6.8,16.3c4.5,4.5,9.9,6.7,16.2,6.7c6.4,0,11.8-2.3,16.3-6.8l10.8,10.8
			C220.9,150.5,211.7,155.5,199.9,155.5z"/>
		<path class="st0" d="M145,159v15h-18.6v60.5h-15.2V174H92.6v-15H145z"/>
		<path class="st0" d="M189.2,195.2v-42h15.2v77.3l-45.6-43.4v42h-15.2v-77.3L189.2,195.2z"/>
		<path class="st0" d="M230.5,241.7H70V60.2h160.5V241.7z M86,225.7h128.5V76.2H86V225.7z"/>
	</g>
	<g>
		<path class="st0" d="M108.1,121.9v-15.7l-0.3-31.7l15.7,0l0.3,31.4v16c0,8.7-3.1,16.1-9.2,22.2c-6.1,5.9-13.3,9-21.9,9.1h-0.5
			c-6.6-0.1-12.4-1.9-17.5-5.4l7.9-13.7c2.7,2.3,5.6,3.5,9.7,3.5h0.3C101.2,137.6,108.1,130.3,108.1,121.9z"/>
		<path class="st0" d="M144.9,151.2c4.2,0,8.8-3.5,8.8-7.7c0-6.9-9.3-7.9-14.5-9.7c-9.2-3.1-17.3-10.7-17.3-21
			c0-12.7,10.3-23,23.1-23c11.6,0,21.2,8.6,22.8,19.8l-15.1,3.2c0-4.1-3.5-7.6-7.6-7.6c-4.2,0-7.7,3.5-7.7,7.7
			c0,6.8,8.6,8.6,13.9,10.2c9.5,2.8,17.9,10,17.9,20.5c0,12.7-11.4,23-24.2,23c-11.7,0-22.3-8.6-24-19.8l15.1-3.2
			C136.1,147.8,140.7,151.2,144.9,151.2L144.9,151.2z"/>
		<path class="st0" d="M199.9,155.5c-10.6,0-19.6-3.8-27-11.2c-7.5-7.5-11.3-16.5-11.3-27.1c0-10.5,3.8-19.6,11.3-27.1
			c7.5-7.5,16.5-11.3,27-11.3l0,0.2c11.7,0,20.9,5.2,27.2,11.2l-10.8,10.8c-4.6-4.5-10-6.8-16.3-6.8c-6.4,0-11.8,2.3-16.2,6.8
			c-4.5,4.6-6.8,10-6.8,16.3c0,6.3,2.3,11.8,6.8,16.3c4.5,4.5,9.9,6.7,16.2,6.7c6.4,0,11.8-2.3,16.3-6.8l10.8,10.8
			C220.9,150.5,211.7,155.5,199.9,155.5z"/>
		<path class="st0" d="M145,159v15h-18.6v60.5h-15.2V174H92.6v-15H145z"/>
		<path class="st0" d="M189.2,195.2v-42h15.2v77.3l-45.6-43.4v42h-15.2v-77.3L189.2,195.2z"/>
		<path class="st0" d="M230.5,241.7H70V60.2h160.5V241.7z M86,225.7h128.5V76.2H86V225.7z"/>
	</g>
</g>
</svg>
